PathFileType	4	(X/Y/Z)	/Users/niels/Desktop/University/Third Semester/Perception and Action/Exam/Gymnastics Motion Tracking/Code for Gym Tracking/Analyzed Data/Webcam_Backflip/id6_3_baseline_Sports2D/id6_3_baseline_Sports2D_px_person00.trc
DataRate	CameraRate	NumFrames	NumMarkers	Units	OrigDataRate	OrigDataStartFrame	OrigNumFrames
29.8125	29.8125	12	22	m	29.8125	40	160
Frame#	Time	Hip			RHip			RKnee			RAnkle			RBigToe			RSmallToe			RHeel			LHip			LKnee			LAnkle			LBigToe			LSmallToe			LHeel			Neck			Head			Nose			RShoulder			RElbow			RWrist			LShoulder			LElbow			LWrist		
		X1	Y1	Z1	X2	Y2	Z2	X3	Y3	Z3	X4	Y4	Z4	X5	Y5	Z5	X6	Y6	Z6	X7	Y7	Z7	X8	Y8	Z8	X9	Y9	Z9	X10	Y10	Z10	X11	Y11	Z11	X12	Y12	Z12	X13	Y13	Z13	X14	Y14	Z14	X15	Y15	Z15	X16	Y16	Z16	X17	Y17	Z17	X18	Y18	Z18	X19	Y19	Z19	X20	Y20	Z20	X21	Y21	Z21	X22	Y22	Z22
40	1.341719077568134	0.9743463373120673	-0.589011980069301	0.0	0.9733165615427006	-0.589855041052943	0.0	1.0009336335228443	-0.686822122339462	0.0	0.9782855129434582	-0.782591910851205	0.0	1.012356760216976	-0.7975743258611521	0.0	1.0048413996954093	-0.8011407661698119	0.0	0.9685526170656394	-0.7951969765259921	0.0	0.9730610020492849	-0.5875128878554127	0.0	0.9981736354135538	-0.6851872012099479	0.0	0.9785712546988413	-0.7774270882302642	0.0	1.0120656261058685	-0.796106231489534	0.0	1.0078676086687315	-0.7929303153395542	0.0	0.9675594560684075	-0.7904887258341419	0.0	1.0177057488179773	-0.463514259812709	0.0	1.0531099314565522	-0.4030310890606565	0.0	1.0578459311663033	-0.43542776426219043	0.0	1.0171982788381968	-0.4752032419154326	0.0	0.9691563380005006	-0.5065495917731225	0.0	0.920572910218414	-0.5330283291641187	0.0	1.0062452752944122	-0.4709888693932822	0.0	0.9643311403773127	-0.5012940335142118	0.0	0.921305954699449	-0.5307180636446046	0.0
41	1.3752620545073373	0.9743560124008749	-0.584589662526351	0.0	0.9726254842582103	-0.5852996806274794	0.0	1.0019871943468226	-0.6822588424617219	0.0	0.978435685952267	-0.7778979871336554	0.0	1.014141762631646	-0.7930566732297606	0.0	1.0061418797835502	-0.7967872896238398	0.0	0.9682740821613667	-0.7903882356977217	0.0	0.9732154980137993	-0.582454339519148	0.0	0.9987439088222747	-0.6803340299730979	0.0	0.9787497828309224	-0.7729680738919341	0.0	1.0121871800508964	-0.7915920960111404	0.0	1.0083243103740454	-0.7881050974534877	0.0	0.9675488477797591	-0.7853055607999287	0.0	1.016329779439719	-0.4591022411459423	0.0	1.0542695194471723	-0.39847147374190783	0.0	1.0579205825742768	-0.4305307579361932	0.0	1.016170098451909	-0.46931229121906765	0.0	0.9630756764797707	-0.49304379743974386	0.0	0.9105108664094786	-0.5116212379593743	0.0	1.0052456265816645	-0.46569430521550725	0.0	0.959455180309247	-0.48837423436729616	0.0	0.9115207842671146	-0.5132906748674392	0.0
42	1.4088050314465406	0.9737110603698548	-0.5800860007130286	0.0	0.9716069728520643	-0.5805560991522887	0.0	1.0030840973807904	-0.6772424521609806	0.0	0.9784679108295378	-0.7730158429762664	0.0	1.0155741357427042	-0.7883410557702363	0.0	1.0070688039574052	-0.7921888451932566	0.0	0.9681017921843252	-0.7854763698926023	0.0	0.9726600953160186	-0.5773487317928345	0.0	0.9992970810441603	-0.6750506578051291	0.0	0.9786433200254296	-0.7686386285667344	0.0	1.012250913244228	-0.7866302214612177	0.0	1.0086541746871158	-0.7831001107238221	0.0	0.9674563450381914	-0.780170546040116	0.0	1.0148187731254867	-0.4548749054395869	0.0	1.0552120527414008	-0.39420377601122386	0.0	1.0580681615767815	-0.4258712797892969	0.0	1.0153855756292964	-0.46370512677368614	0.0	0.9585981712857052	-0.48102156636446813	0.0	0.9030896309768282	-0.4923473229980874	0.0	1.004109936135527	-0.4606237950697237	0.0	0.9557894857281546	-0.47740189985562365	0.0	0.9049191570832259	-0.49880221225759264	0.0
43	1.442348008385744	0.9724804918648897	-0.5759986631543693	0.0	0.9702563856937667	-0.5761747652013186	0.0	1.0043299588653147	-0.6722733949136772	0.0	0.9784101562291402	-0.7682841859212903	0.0	1.0166258304596865	-0.7837977348653641	0.0	1.0076765898846063	-0.7877187962000111	0.0	0.9680064329070386	-0.7808163296101441	0.0	0.971579929132797	-0.5728971290369496	0.0	1.0000865884087624	-0.6698749733254789	0.0	0.9784077158140255	-0.7646263180115501	0.0	1.0125924652456377	-0.7816760763141472	0.0	1.009093757802786	-0.7784028221228352	0.0	0.9673706107731652	-0.775471540439979	0.0	1.0134693834847515	-0.4512854620775627	0.0	1.0558204609686934	-0.3908301868926364	0.0	1.0583000615087548	-0.4221018735094457	0.0	1.0149022621015844	-0.45910850638501466	0.0	0.9552750225587493	-0.47148351516090553	0.0	0.8974355470564549	-0.4767279817274468	0.0	1.0031338118818016	-0.45637292628290954	0.0	0.9529786763939724	-0.46936372732765874	0.0	0.9006328781757651	-0.48816782404323034	0.0
44	1.4758909853249473	0.9706724411994834	-0.572866684666588	0.0	0.9684578689481229	-0.5727690084705704	0.0	1.0057917925611886	-0.6678158378319048	0.0	0.9783358407102104	-0.7639398041407237	0.0	1.017316426224292	-0.7796496090692243	0.0	1.0080293462645018	-0.7836151584441332	0.0	0.9679225952164766	-0.7766187308164617	0.0	0.970084889871381	-0.5697063237541912	0.0	1.0013393787527525	-0.6652990824214725	0.0	0.9782251127155951	-0.7609688752876335	0.0	1.0132630133491938	-0.7770938858920676	0.0	1.0096757297724244	-0.7743036041515946	0.0	0.9673286526605945	-0.7713673850704552	0.0	1.0125074094525	-0.4489888973879947	0.0	1.0561016092536333	-0.38890809505917945	0.0	1.0585473406890011	-0.4198112529777249	0.0	1.0146256134793246	-0.45627673683733155	0.0	0.9527218798102162	-0.46533630059781844	0.0	0.8930365087634895	-0.4663072202851237	0.0	1.0025875850406316	-0.45368929846848055	0.0	0.9506905683980457	-0.4648078071394379	0.0	0.897646124760493	-0.48176997836231417	0.0
45	1.5094339622641506	0.9682840600774631	-0.5712588371849066	0.0	0.9661007835043421	-0.5709938011334114	0.0	1.0074990574361942	-0.664264460230242	0.0	0.9783353358985909	-0.760186058539956	0.0	1.0176696018787539	-0.7760620193170484	0.0	1.0082034298550553	-0.7800699854401077	0.0	0.9678100361925998	-0.7730320424375319	0.0	0.9681680903694281	-0.5682605856783715	0.0	1.0031382999935858	-0.6617077487902573	0.0	0.9782147391257385	-0.7576455996654443	0.0	1.014048468418613	-0.7731123372511478	0.0	1.010260649577805	-0.7709155462900757	0.0	0.9673255447722088	-0.767892588825425	0.0	1.0120264848596239	-0.44870366983588716	0.0	1.0561444553197372	-0.3889503351530097	0.0	1.0587189216833266	-0.41949845040128386	0.0	1.0143703167325702	-0.4558882742430361	0.0	0.9507004947895223	-0.46346290220937114	0.0	0.8897025182964766	-0.46248231013803165	0.0	1.0026052740014382	-0.45330755640167497	0.0	0.9487738613008153	-0.46403873806447105	0.0	0.89522377530567	-0.4799111817894809	0.0
46	1.542976939203354	0.9653910593501345	-0.5717545433050726	0.0	0.9631937419015144	-0.571480284070875	0.0	1.009473641827388	-0.6619866578326679	0.0	0.9784839465039077	-0.7572590635320651	0.0	1.0177379515686191	-0.7732755083050163	0.0	1.0083063765820783	-0.777347051865358	0.0	0.9676908952401081	-0.7702451216104592	0.0	0.9658154296826705	-0.5689824250604882	0.0	1.005418658534178	-0.6594315947784735	0.0	0.9784328324873409	-0.7547342789102235	0.0	1.0146247757676443	-0.7699746891420851	0.0	1.0106776704206912	-0.7683695186917847	0.0	0.9673438176072581	-0.7651183624479752	0.0	1.011985046195842	-0.45100735219511484	0.0	1.0559589894622183	-0.3913778294520096	0.0	1.0587046322172347	-0.42153902228834506	0.0	1.0139301856502627	-0.4584751907395365	0.0	0.9491771545902101	-0.4667158625920302	0.0	0.8875405072177689	-0.46645098722122796	0.0	1.003101569836281	-0.45579259389378096	0.0	0.9472644218826235	-0.467387349105942	0.0	0.8931846294871799	-0.48311388789902965	0.0
47	1.5765199161425574	0.9622082832190898	-0.5748468078156085	0.0	0.9599297377201154	-0.5747203609263026	0.0	1.0117387856679885	-0.6613819791964124	0.0	0.9788206452110236	-0.7554961634595119	0.0	1.0175527105455666	-0.7716682572786037	0.0	1.0083868437950703	-0.775826162830163	0.0	0.9676327971950918	-0.7685605684427349	0.0	0.9631075157793237	-0.5722568868120658	0.0	1.0080357613406368	-0.6588225594247181	0.0	0.9788988763584106	-0.752568073229623	0.0	1.0147025769169813	-0.7680915410638948	0.0	1.0107840265890102	-0.7669638942021607	0.0	0.9673507632724405	-0.7632853379006762	0.0	1.0122346291046256	-0.45620357331777345	0.0	1.0553560018774493	-0.39641684413003475	0.0	1.0583376855143798	-0.42615326237920015	0.0	1.0131628228074638	-0.4643539736744922	0.0	0.9483765796033975	-0.4757270153658013	0.0	0.8870103786049446	-0.47905810313759345	0.0	1.0037946666563546	-0.4614569689402804	0.0	0.9464173500855252	-0.4753744749971897	0.0	0.8920680512218457	-0.49221526539413324	0.0
48	1.6100628930817606	0.9590585292449892	-0.5808312718784733	0.0	0.9566638494205875	-0.580986015185794	0.0	1.0142748323070545	-0.6629219309116898	0.0	0.9793367608887368	-0.7554227952334723	0.0	1.0170678107940538	-0.7717784633508943	0.0	1.0083633178845899	-0.7760054560389288	0.0	0.9677063667630851	-0.7684455779042976	0.0	0.9602324936536452	-0.5783826521544541	0.0	1.0108326206882723	-0.6603170780248413	0.0	0.9795884463707126	-0.7518266328928699	0.0	1.0141448029602353	-0.7680872316183952	0.0	1.0104926072333493	-0.7672062070091227	0.0	0.9673126673691985	-0.7628976087886135	0.0	1.0125266024791921	-0.464255446441766	0.0	1.0539554828564481	-0.40403728410595147	0.0	1.0573785531649238	-0.43337446006100844	0.0	1.0120055132517005	-0.4735324307151352	0.0	0.948767709066834	-0.4906431603905856	0.0	0.8889924493603156	-0.5003550353872604	0.0	1.0042926143573478	-0.4703071541165488	0.0	0.9467638662817319	-0.4885710745313448	0.0	0.8932177940946486	-0.5082135282794837	0.0
49	1.6436058700209641	0.9562645172987788	-0.5897475342663684	0.0	0.9537958491795692	-0.5903026271227952	0.0	1.0169338341037977	-0.6671418784309247	0.0	0.9799720441932819	-0.7577587206684737	0.0	1.0161829653559327	-0.7742778783070008	0.0	1.008043556940892	-0.7784656033977698	0.0	0.9679629947059257	-0.7704934633131771	0.0	0.9574568581767869	-0.5874743486821461	0.0	1.0136416313229164	-0.6644668417997139	0.0	0.9804078531304289	-0.7534686185942168	0.0	1.013042529921016	-0.7707395797510488	0.0	1.0097679003091624	-0.769753078792728	0.0	0.9672276352494996	-0.7646800890273101	0.0	1.0124787792032395	-0.47472885190523817	0.0	1.0512785994829776	-0.4139263923170192	0.0	1.0555287047892257	-0.44295122764443784	0.0	1.0103792151512314	-0.4856021290803724	0.0	0.9510302574528575	-0.510877990398098	0.0	0.8949447783060013	-0.5291430682560608	0.0	1.0041589623935845	-0.4819546727501419	0.0	0.9490330947846668	-0.5070095624054485	0.0	0.8986173191225884	-0.531374173484947	0.0
50	1.6771488469601674	0.954075991296169	-0.6013076913547936	0.0	0.9516393715552106	-0.6023829540752798	0.0	1.0193815916846052	-0.6745397391020472	0.0	0.9806333178441607	-0.7632603327724041	0.0	1.0148292551112226	-0.7797914624374395	0.0	1.0072144404691723	-0.7837225299353897	0.0	0.9684451274729696	-0.7752596889195754	0.0	0.9551147608494751	-0.5993271393194474	0.0	1.016211126501506	-0.6718419549101269	0.0	0.981197996831191	-0.758479215713591	0.0	1.0117253062549216	-0.7767558970301686	0.0	1.008576872842322	-0.775225093928134	0.0	0.9671616971792016	-0.7693506704739675	0.0	1.011583150358239	-0.48678116189399434	0.0	1.0468545292691296	-0.425422922672454	0.0	1.052456493610015	-0.4542361601299983	0.0	1.0080837634419408	-0.49964140253647477	0.0	0.9560071170594898	-0.5347792152335937	0.0	0.906997578430814	-0.5625897456867561	0.0	1.0029774259631925	-0.49553233189437057	0.0	0.9540171326121649	-0.529430896785592	0.0	0.9104775052248025	-0.5598731713492769	0.0
51	1.710691823899371	0.9526570118262262	-0.614786937291748	0.0	0.9503479574693932	-0.6164858774516985	0.0	1.021120027657131	-0.6853453357440961	0.0	0.9812207251330067	-0.7723989229580172	0.0	1.0130528310572355	-0.7885459953462826	0.0	1.005747746965978	-0.791951843264107	0.0	0.969166552161191	-0.7830629080451301	0.0	0.9535407801549696	-0.6132669379612464	0.0	1.018130410006905	-0.6827397560702951	0.0	0.9817849694064292	-0.7674700829058319	0.0	1.0106363210656009	-0.7863402568313961	0.0	1.0068660025369993	-0.7838836958415976	0.0	0.9672237837210772	-0.7773092436298357	0.0	1.009297426716057	-0.49930623276619246	0.0	1.040336617332374	-0.43746590443463224	0.0	1.0478289008909036	-0.46621438009040367	0.0	1.0048115630562457	-0.5142628323154492	0.0	0.964459131104308	-0.5593238472595087	0.0	0.9273429615343907	-0.5958003160363455	0.0	1.0004373065925436	-0.5097486879811217	0.0	0.9624029036648402	-0.5529250983655577	0.0	0.9305690943296002	-0.5891075209159132	0.0
